<?xml version="1.0" standalone="no"?>
<!DOCTYPE svg PUBLIC "-//W3C//DTD SVG 20010904//EN"
 "http://www.w3.org/TR/2001/REC-SVG-20010904/DTD/svg10.dtd">
<svg version="1.0" xmlns="http://www.w3.org/2000/svg"
 width="300.000000pt" height="108.000000pt" viewBox="0 0 300.000000 108.000000"
 preserveAspectRatio="xMidYMid meet">
<metadata>
Created by potrace 1.10, written by Peter Selinger 2001-2011
</metadata>
<g transform="translate(0.000000,108.000000) scale(0.100000,-0.100000)"
fill="#000000" stroke="none">
<path d="M197 968 c-16 -12 -17 -48 -15 -448 l3 -435 444 -3 c319 -1 448 1
457 9 11 9 14 90 14 440 0 413 -1 429 -19 439 -30 16 -862 14 -884 -2z m878
-443 l0 -420 -437 -3 -438 -2 0 425 0 425 438 -2 437 -3 0 -420z"/>
<path d="M555 866 c-47 -28 -85 -92 -85 -142 0 -43 40 -108 83 -134 36 -22
109 -26 154 -9 38 14 72 47 89 88 19 45 17 78 -5 128 -40 87 -151 120 -236 69z
m153 -32 c50 -33 63 -54 64 -104 1 -34 -4 -56 -15 -68 -10 -10 -15 -21 -12
-24 11 -11 -97 -60 -120 -54 -31 8 -82 52 -100 87 -58 110 78 231 183 163z"/>
<path d="M440 550 c-94 -20 -109 -35 -124 -121 -2 -14 -15 -48 -28 -75 -33
-66 -36 -136 -9 -163 12 -12 33 -21 49 -22 15 0 37 -2 50 -5 17 -3 22 1 22 15
0 15 8 21 33 24 31 4 31 4 -5 5 -29 2 -38 6 -38 20 0 9 -7 67 -15 127 -8 61
-15 111 -15 113 0 1 126 2 281 2 l281 0 -5 -22 c-3 -13 -11 -71 -18 -130 l-12
-108 -36 -2 -36 -1 33 -4 c26 -3 32 -8 27 -21 -4 -15 3 -18 44 -20 38 -1 53 3
73 21 37 33 38 99 2 168 -15 30 -28 68 -30 86 -4 45 -31 93 -52 93 -10 0 -23
5 -30 12 -10 10 -67 12 -237 7 -27 0 -75 1 -105 4 -30 3 -75 2 -100 -3z m209
-21 c25 1 48 4 53 7 4 3 38 -4 75 -15 38 -11 79 -22 93 -24 14 -2 -68 -4 -182
-5 -114 0 -210 3 -213 8 -8 13 85 40 110 33 11 -4 40 -5 64 -4z m-286 -254 c2
-58 1 -60 -25 -63 -22 -3 -29 2 -33 21 -9 34 0 80 21 116 18 31 19 31 27 9 5
-13 9 -50 10 -83z m591 82 c20 -30 47 -107 38 -107 -4 0 -12 -10 -17 -22 -6
-12 -18 -26 -28 -32 -28 -17 -45 14 -40 72 10 117 19 133 47 89z"/>
<path d="M390 438 c0 -7 5 -57 12 -110 l12 -98 33 0 c29 0 33 -3 33 -25 0 -21
-5 -25 -30 -25 -16 0 -30 -4 -30 -10 0 -6 80 -10 220 -10 140 0 220 4 220 10
0 6 -13 10 -30 10 -23 0 -30 4 -30 20 0 23 -15 27 -23 6 -5 -12 -31 -14 -132
-13 -118 2 -128 4 -145 25 -10 12 -30 26 -44 32 -14 5 -26 17 -27 27 0 10 -4
42 -8 70 -4 29 -4 58 0 65 5 8 65 13 211 15 112 2 211 5 221 7 14 4 17 -3 17
-47 0 -62 5 -59 14 11 l7 52 -251 0 c-193 0 -250 -3 -250 -12z"/>
<path d="M858 288 c-2 -34 -7 -42 -20 -40 -9 1 -19 -2 -23 -8 -4 -6 6 -10 24
-10 30 0 31 1 31 50 0 61 -8 66 -12 8z"/>
<path d="M1170 520 c0 -262 2 -300 15 -300 14 0 15 36 15 290 -1 160 2 295 5
300 3 6 -3 10 -14 10 -21 0 -21 -4 -21 -300z"/>
<path d="M1843 635 c-29 -29 -34 -41 -32 -72 3 -54 1 -63 -15 -63 -20 0 -29
35 -17 59 17 30 13 41 -13 41 -33 0 -35 -5 -25 -74 8 -61 19 -76 55 -76 32 0
44 21 54 92 10 67 33 98 74 98 13 0 17 -3 9 -8 -17 -11 1 -36 21 -29 19 7 21
38 4 55 -25 25 -78 14 -115 -23z"/>
<path d="M2753 640 c-33 -20 -57 -53 -46 -63 3 -4 -2 -9 -11 -13 -9 -3 -13
-11 -9 -18 3 -6 2 -7 -3 -3 -5 5 -9 19 -9 30 0 17 -7 23 -27 25 -33 4 -34 -2
-8 -53 11 -22 20 -52 20 -67 0 -23 4 -28 23 -28 32 0 36 6 28 38 -6 21 -2 36
20 68 42 62 56 71 74 48 15 -19 15 -19 30 1 15 18 14 21 -6 38 -27 22 -37 21
-76 -3z"/>
<path d="M1320 548 c0 -29 -3 -63 -6 -75 -5 -19 -2 -23 18 -23 21 0 24 4 20
28 -2 16 2 33 10 39 11 10 13 5 10 -28 -4 -34 -1 -39 17 -39 12 0 19 5 17 13
-13 41 -15 67 -6 67 6 0 9 -4 6 -9 -4 -5 -2 -11 4 -13 6 -2 11 -20 12 -40 2
-62 68 -109 122 -88 20 7 27 16 24 32 -2 13 -11 24 -21 26 -15 3 -18 0 -13
-16 8 -23 -5 -24 -41 -4 -28 15 -47 82 -40 139 4 42 4 43 -24 43 -26 0 -29 -4
-29 -30 0 -16 -4 -30 -10 -30 -5 0 -10 14 -10 30 0 27 -3 30 -30 30 -30 0 -30
-1 -30 -52z"/>
<path d="M1494 525 c0 -71 1 -75 22 -75 20 0 22 4 18 38 l-5 37 23 -40 c57
-101 94 -127 149 -105 34 14 42 32 24 56 -11 15 -15 16 -29 5 -9 -7 -14 -17
-11 -21 3 -4 -1 -10 -9 -13 -14 -6 -47 26 -84 79 -18 27 -20 33 -7 38 22 8 19
53 -4 66 -11 5 -35 10 -53 10 l-33 0 -1 -75z"/>
<path d="M1881 542 c1 -32 -1 -63 -4 -69 -9 -15 3 -23 34 -23 69 0 109 39 72
70 -19 15 -19 17 -4 27 14 10 14 13 1 26 -8 8 -34 17 -58 21 l-43 6 2 -58z"/>
<path d="M2067 594 c-4 -4 -7 -16 -7 -26 0 -12 7 -17 23 -15 21 2 22 -1 20
-50 -2 -50 -1 -53 22 -53 24 0 25 3 25 56 0 52 1 55 21 49 17 -6 20 -3 17 17
-3 20 -9 23 -58 26 -31 2 -59 0 -63 -4z"/>
<path d="M2213 525 l-1 -75 49 0 c46 0 49 2 49 25 0 22 -3 25 -25 19 -18 -5
-25 -2 -25 9 0 10 7 13 20 10 14 -4 20 0 20 12 0 13 -6 16 -25 12 -16 -3 -24
0 -22 7 2 6 15 11 28 11 23 0 41 22 32 38 -2 4 -26 7 -52 7 l-48 0 0 -75z"/>
<path d="M2362 583 c-12 -10 -25 -32 -28 -50 -12 -59 69 -108 110 -67 26 26
16 50 -13 34 -36 -19 -66 35 -34 61 9 8 14 9 10 3 -4 -7 -1 -17 7 -23 10 -9
17 -7 27 5 31 38 -38 71 -79 37z"/>
<path d="M2475 525 l0 -75 28 0 c28 0 36 17 16 37 -8 8 -8 13 0 18 17 10 41
-20 34 -44 -13 -50 56 -113 98 -91 28 16 23 64 -8 68 -26 4 -28 -1 -13 -29 6
-11 7 -19 1 -19 -21 0 -45 76 -44 143 0 64 -1 67 -23 67 -25 0 -32 -18 -13
-37 15 -15 4 -43 -15 -43 -20 0 -31 19 -17 33 22 22 13 47 -17 47 l-28 0 1
-75z"/>
<path d="M1630 475 c-10 -12 -9 -16 5 -21 19 -8 40 9 31 25 -10 15 -21 14 -36
-4z"/>
</g>
</svg>
